<mxfile host="app.diagrams.net" modified="2023-07-06T19:19:49.348Z" agent="Mozilla/5.0 (Windows NT 10.0; Win64; x64) AppleWebKit/537.36 (KHTML, like Gecko) Chrome/114.0.0.0 Safari/537.36" etag="A220J2grJeSNpPDL7vF5" version="21.6.1" type="device">
  <diagram name="PÃ¡gina-1" id="GfYVgE0w-M5Sw0UFw3tH">
    <mxGraphModel dx="1434" dy="764" grid="1" gridSize="10" guides="1" tooltips="1" connect="1" arrows="1" fold="1" page="1" pageScale="1" pageWidth="827" pageHeight="1169" math="0" shadow="0">
      <root>
        <mxCell id="0" />
        <mxCell id="1" parent="0" />
        <mxCell id="Xo8bglUWD3z1-t6p-cdP-43" value="" style="rounded=0;whiteSpace=wrap;html=1;" parent="1" vertex="1">
          <mxGeometry x="831" y="144" width="40" height="30" as="geometry" />
        </mxCell>
        <mxCell id="Xo8bglUWD3z1-t6p-cdP-23" value="" style="rounded=0;whiteSpace=wrap;html=1;" parent="1" vertex="1">
          <mxGeometry x="230" y="52.5" width="960" height="785" as="geometry" />
        </mxCell>
        <mxCell id="Xo8bglUWD3z1-t6p-cdP-25" value="" style="rounded=0;whiteSpace=wrap;html=1;" parent="1" vertex="1">
          <mxGeometry x="310" y="116" width="780" height="630" as="geometry" />
        </mxCell>
        <mxCell id="Xo8bglUWD3z1-t6p-cdP-7" value="" style="rounded=0;whiteSpace=wrap;html=1;fillColor=#dae8fc;strokeColor=#6c8ebf;" parent="1" vertex="1">
          <mxGeometry x="310" y="115" width="780" height="88" as="geometry" />
        </mxCell>
        <mxCell id="Xo8bglUWD3z1-t6p-cdP-10" style="edgeStyle=orthogonalEdgeStyle;rounded=0;orthogonalLoop=1;jettySize=auto;html=1;exitX=1;exitY=1;exitDx=0;exitDy=0;entryX=1;entryY=1;entryDx=0;entryDy=0;" parent="1" edge="1">
          <mxGeometry relative="1" as="geometry">
            <mxPoint x="201" y="665" as="sourcePoint" />
            <mxPoint x="201" y="665" as="targetPoint" />
          </mxGeometry>
        </mxCell>
        <mxCell id="Xo8bglUWD3z1-t6p-cdP-21" value="&amp;lt;body&amp;gt;" style="text;html=1;align=center;verticalAlign=middle;resizable=0;points=[];autosize=1;strokeColor=none;fillColor=none;" parent="1" vertex="1">
          <mxGeometry x="221.5" y="52.5" width="60" height="30" as="geometry" />
        </mxCell>
        <mxCell id="Xo8bglUWD3z1-t6p-cdP-27" value="&amp;lt;div&amp;gt;" style="text;html=1;strokeColor=none;fillColor=none;align=center;verticalAlign=middle;whiteSpace=wrap;rounded=0;" parent="1" vertex="1">
          <mxGeometry x="281.5" y="91" width="60" height="30" as="geometry" />
        </mxCell>
        <mxCell id="Xo8bglUWD3z1-t6p-cdP-31" value="&amp;lt;nav&amp;gt;" style="text;html=1;strokeColor=none;fillColor=none;align=center;verticalAlign=middle;whiteSpace=wrap;rounded=0;" parent="1" vertex="1">
          <mxGeometry x="300.5" y="107" width="60" height="30" as="geometry" />
        </mxCell>
        <mxCell id="Xo8bglUWD3z1-t6p-cdP-33" value="" style="rounded=0;whiteSpace=wrap;html=1;" parent="1" vertex="1">
          <mxGeometry x="321" y="131.5" width="90" height="55" as="geometry" />
        </mxCell>
        <mxCell id="Xo8bglUWD3z1-t6p-cdP-34" value="" style="rounded=0;whiteSpace=wrap;html=1;fillColor=#e1d5e7;strokeColor=#9673a6;" parent="1" vertex="1">
          <mxGeometry x="756" y="128" width="310" height="55" as="geometry" />
        </mxCell>
        <mxCell id="Xo8bglUWD3z1-t6p-cdP-35" value="&amp;lt;a&amp;gt;" style="text;html=1;strokeColor=none;fillColor=none;align=center;verticalAlign=middle;whiteSpace=wrap;rounded=0;" parent="1" vertex="1">
          <mxGeometry x="314" y="131" width="40" height="18" as="geometry" />
        </mxCell>
        <mxCell id="Xo8bglUWD3z1-t6p-cdP-36" value="&amp;lt;img&amp;gt;" style="text;html=1;strokeColor=none;fillColor=none;align=center;verticalAlign=middle;whiteSpace=wrap;rounded=0;" parent="1" vertex="1">
          <mxGeometry x="356.5" y="146" width="40" height="10" as="geometry" />
        </mxCell>
        <mxCell id="Xo8bglUWD3z1-t6p-cdP-37" value="&amp;lt;ul&amp;gt;" style="text;html=1;strokeColor=none;fillColor=none;align=center;verticalAlign=middle;whiteSpace=wrap;rounded=0;" parent="1" vertex="1">
          <mxGeometry x="740" y="120" width="60" height="30" as="geometry" />
        </mxCell>
        <mxCell id="Xo8bglUWD3z1-t6p-cdP-38" value="" style="rounded=0;whiteSpace=wrap;html=1;" parent="1" vertex="1">
          <mxGeometry x="796" y="144" width="70" height="30" as="geometry" />
        </mxCell>
        <mxCell id="Xo8bglUWD3z1-t6p-cdP-46" value="&amp;lt;a&amp;gt;" style="text;html=1;strokeColor=none;fillColor=none;align=center;verticalAlign=middle;whiteSpace=wrap;rounded=0;" parent="1" vertex="1">
          <mxGeometry x="826" y="158" width="40" height="18" as="geometry" />
        </mxCell>
        <mxCell id="Xo8bglUWD3z1-t6p-cdP-47" value="&amp;lt;li&amp;gt;" style="text;html=1;strokeColor=none;fillColor=none;align=center;verticalAlign=middle;whiteSpace=wrap;rounded=0;" parent="1" vertex="1">
          <mxGeometry x="787" y="141.5" width="40" height="18" as="geometry" />
        </mxCell>
        <mxCell id="Xo8bglUWD3z1-t6p-cdP-53" value="" style="rounded=0;whiteSpace=wrap;html=1;" parent="1" vertex="1">
          <mxGeometry x="875" y="144" width="70" height="30" as="geometry" />
        </mxCell>
        <mxCell id="Xo8bglUWD3z1-t6p-cdP-54" value="&amp;lt;a&amp;gt;" style="text;html=1;strokeColor=none;fillColor=none;align=center;verticalAlign=middle;whiteSpace=wrap;rounded=0;" parent="1" vertex="1">
          <mxGeometry x="905" y="158" width="40" height="18" as="geometry" />
        </mxCell>
        <mxCell id="Xo8bglUWD3z1-t6p-cdP-55" value="&amp;lt;li&amp;gt;" style="text;html=1;strokeColor=none;fillColor=none;align=center;verticalAlign=middle;whiteSpace=wrap;rounded=0;" parent="1" vertex="1">
          <mxGeometry x="866" y="141.5" width="40" height="18" as="geometry" />
        </mxCell>
        <mxCell id="Xo8bglUWD3z1-t6p-cdP-56" value="" style="rounded=0;whiteSpace=wrap;html=1;" parent="1" vertex="1">
          <mxGeometry x="955" y="144" width="70" height="30" as="geometry" />
        </mxCell>
        <mxCell id="Xo8bglUWD3z1-t6p-cdP-57" value="&amp;lt;a&amp;gt;" style="text;html=1;strokeColor=none;fillColor=none;align=center;verticalAlign=middle;whiteSpace=wrap;rounded=0;" parent="1" vertex="1">
          <mxGeometry x="985" y="158.5" width="40" height="18" as="geometry" />
        </mxCell>
        <mxCell id="Xo8bglUWD3z1-t6p-cdP-58" value="&amp;lt;li&amp;gt;" style="text;html=1;strokeColor=none;fillColor=none;align=center;verticalAlign=middle;whiteSpace=wrap;rounded=0;" parent="1" vertex="1">
          <mxGeometry x="945" y="144" width="40" height="18" as="geometry" />
        </mxCell>
        <mxCell id="Xo8bglUWD3z1-t6p-cdP-59" value="&lt;/div&gt;" style="rounded=0;whiteSpace=wrap;html=1;fillColor=#f8cecc;strokeColor=#b85450;" parent="1" vertex="1">
          <mxGeometry x="310" y="203" width="780" height="442" as="geometry" />
        </mxCell>
        <mxCell id="Xo8bglUWD3z1-t6p-cdP-60" value="&amp;lt;section&amp;gt;" style="text;html=1;strokeColor=none;fillColor=none;align=center;verticalAlign=middle;whiteSpace=wrap;rounded=0;" parent="1" vertex="1">
          <mxGeometry x="310" y="199" width="60" height="30" as="geometry" />
        </mxCell>
        <mxCell id="Xo8bglUWD3z1-t6p-cdP-61" value="&lt;div&gt;&lt;br&gt;&lt;/div&gt;" style="rounded=0;whiteSpace=wrap;html=1;" parent="1" vertex="1">
          <mxGeometry x="310" y="229.5" width="400" height="390.5" as="geometry" />
        </mxCell>
        <mxCell id="Xo8bglUWD3z1-t6p-cdP-62" value="&amp;lt;img&amp;gt;" style="text;html=1;strokeColor=none;fillColor=none;align=center;verticalAlign=middle;whiteSpace=wrap;rounded=0;" parent="1" vertex="1">
          <mxGeometry x="310" y="229.5" width="60" height="30" as="geometry" />
        </mxCell>
        <mxCell id="Xo8bglUWD3z1-t6p-cdP-69" value="&amp;lt;footer&amp;gt;" style="text;html=1;strokeColor=none;fillColor=none;align=center;verticalAlign=middle;whiteSpace=wrap;rounded=0;" parent="1" vertex="1">
          <mxGeometry x="304" y="645" width="60" height="30" as="geometry" />
        </mxCell>
        <mxCell id="Xo8bglUWD3z1-t6p-cdP-72" value="&lt;div&gt;&lt;br&gt;&lt;/div&gt;" style="rounded=0;whiteSpace=wrap;html=1;" parent="1" vertex="1">
          <mxGeometry x="710" y="229.5" width="380" height="390.5" as="geometry" />
        </mxCell>
        <mxCell id="Xo8bglUWD3z1-t6p-cdP-75" value="&amp;lt;div&amp;gt;" style="text;html=1;strokeColor=none;fillColor=none;align=center;verticalAlign=middle;whiteSpace=wrap;rounded=0;" parent="1" vertex="1">
          <mxGeometry x="696" y="228" width="60" height="30" as="geometry" />
        </mxCell>
        <mxCell id="Xo8bglUWD3z1-t6p-cdP-81" value="Titulo" style="rounded=0;whiteSpace=wrap;html=1;" parent="1" vertex="1">
          <mxGeometry x="795.5" y="290" width="210" height="70" as="geometry" />
        </mxCell>
        <mxCell id="Xo8bglUWD3z1-t6p-cdP-82" value="&amp;lt;h1&amp;gt;" style="text;html=1;strokeColor=none;fillColor=none;align=center;verticalAlign=middle;whiteSpace=wrap;rounded=0;" parent="1" vertex="1">
          <mxGeometry x="787" y="290" width="60" height="30" as="geometry" />
        </mxCell>
        <mxCell id="Xo8bglUWD3z1-t6p-cdP-84" value="" style="rounded=0;whiteSpace=wrap;html=1;" parent="1" vertex="1">
          <mxGeometry x="801" y="420" width="199" height="50" as="geometry" />
        </mxCell>
        <mxCell id="Xo8bglUWD3z1-t6p-cdP-85" value="&amp;lt;p&amp;gt;" style="text;html=1;strokeColor=none;fillColor=none;align=center;verticalAlign=middle;whiteSpace=wrap;rounded=0;" parent="1" vertex="1">
          <mxGeometry x="787" y="415" width="60" height="30" as="geometry" />
        </mxCell>
        <mxCell id="Xo8bglUWD3z1-t6p-cdP-86" value="Texto" style="text;html=1;strokeColor=none;fillColor=none;align=center;verticalAlign=middle;whiteSpace=wrap;rounded=0;" parent="1" vertex="1">
          <mxGeometry x="856" y="436.25" width="60" height="30" as="geometry" />
        </mxCell>
        <mxCell id="Xo8bglUWD3z1-t6p-cdP-88" value="" style="rounded=0;whiteSpace=wrap;html=1;" parent="1" vertex="1">
          <mxGeometry x="801.5" y="500" width="199" height="50" as="geometry" />
        </mxCell>
        <mxCell id="Xo8bglUWD3z1-t6p-cdP-89" value="&amp;lt;p&amp;gt;" style="text;html=1;strokeColor=none;fillColor=none;align=center;verticalAlign=middle;whiteSpace=wrap;rounded=0;" parent="1" vertex="1">
          <mxGeometry x="787" y="490" width="60" height="30" as="geometry" />
        </mxCell>
        <mxCell id="Xo8bglUWD3z1-t6p-cdP-90" value="Texto" style="text;html=1;strokeColor=none;fillColor=none;align=center;verticalAlign=middle;whiteSpace=wrap;rounded=0;" parent="1" vertex="1">
          <mxGeometry x="856" y="510" width="60" height="30" as="geometry" />
        </mxCell>
        <mxCell id="Xo8bglUWD3z1-t6p-cdP-97" value="" style="rounded=0;whiteSpace=wrap;html=1;" parent="1" vertex="1">
          <mxGeometry x="525" y="660" width="350" height="70" as="geometry" />
        </mxCell>
        <mxCell id="Xo8bglUWD3z1-t6p-cdP-98" value="&amp;lt;div&amp;gt;" style="text;html=1;strokeColor=none;fillColor=none;align=center;verticalAlign=middle;whiteSpace=wrap;rounded=0;" parent="1" vertex="1">
          <mxGeometry x="510" y="653" width="60" height="30" as="geometry" />
        </mxCell>
        <mxCell id="Xo8bglUWD3z1-t6p-cdP-100" value="" style="rounded=0;whiteSpace=wrap;html=1;" parent="1" vertex="1">
          <mxGeometry x="561" y="680" width="270" height="30" as="geometry" />
        </mxCell>
        <mxCell id="Xo8bglUWD3z1-t6p-cdP-101" value="&amp;lt;p&amp;gt;" style="text;html=1;strokeColor=none;fillColor=none;align=center;verticalAlign=middle;whiteSpace=wrap;rounded=0;" parent="1" vertex="1">
          <mxGeometry x="545" y="675" width="60" height="30" as="geometry" />
        </mxCell>
        <mxCell id="Xo8bglUWD3z1-t6p-cdP-102" value="" style="rounded=0;whiteSpace=wrap;html=1;" parent="1" vertex="1">
          <mxGeometry x="236.5" y="672" width="120" height="74" as="geometry" />
        </mxCell>
        <mxCell id="Xo8bglUWD3z1-t6p-cdP-103" value="&amp;lt;img&amp;gt;" style="text;html=1;strokeColor=none;fillColor=none;align=center;verticalAlign=middle;whiteSpace=wrap;rounded=0;" parent="1" vertex="1">
          <mxGeometry x="230" y="660" width="60" height="50" as="geometry" />
        </mxCell>
      </root>
    </mxGraphModel>
  </diagram>
</mxfile>
